<svg version="1.2" xmlns="http://www.w3.org/2000/svg" viewBox="0 0 660 532" width="660" height="532">
	<style>
		.s0 { fill: currentColor } 
	</style>
	<path class="s0" d="m357.84 10.16c4.64-0.26 9.73-0.12 14.41-0.07 29.11 0.37 58.46-0.51 87.55 0.13 1.77 4.15 2.81 9.11 4.11 13.46 2.87 9.59 5.05 19.52 7.75 29.13l12.6 44.71c1.19 4.21 9.66 30.27 7.56 31.91-7.3 5.67-16.46 12-23.99 17.68q-27.85 21.43-55.37 43.29c-2.89-7.09-4.92-16.27-6.77-23.88l-8.83-36.91c-1.39-5.59-3.47-14.57-5.68-19.68-1.24-0.95-0.56-0.56-2.44-0.68-3.45 3.43-11.22 16.06-14.29 20.82l-27.83 43.44-85.73 131.83c-10.63 16.45-22.02 32.41-32.16 49.19-1.83 3.01-8.28 10.46-6.36 13.46 4.3 1.3 7.87-3.26 10.98-5.54 13.92-10.16 27.29-21.02 40.94-31.49l188.39-144.15 48.03-37.01c5.83-4.44 27.07-19.81 30.64-24.24-3.24-9.1-22.66-30.77-28.44-40.31 2.6-1.06 130.15-1.8 140.86-0.88 1.09 3.69-30.81 108.72-35.23 122.92-1.19 3.27-2.56 11.29-4.11 12.62-2.24-2.04-4.49-5.4-6.35-7.93-7.59-10.28-14.27-21.11-21.71-31.47-3.44-4.8-7.28-2.13-10.89 0.87-17.54 14.53-36.84 29.14-54.89 42.91l-62.27 48.04-215.83 166.32-93.25 71.9c-5.96 4.52-12.56 12.04-19.53 14.65-6.73 2.52-83.66 1.85-97.11 1.5-4.45-0.11-8.86-0.6-13.29-0.96 28.83-40.84 56.32-86.04 84.01-128.08l189.47-288.71 47.01-71.98c4.12-6.3 13.31-22.82 18.04-26.81z"/>
	<path class="s0" d="m528.39 253.76c-0.79-0.85 20.12 72.38 21.84 78.62l40.51 146.55c3.82 13.81 8.03 34.06 12.55 46.84-6.42 0.09-12.59 0.61-19.07 0.72q-31.81 0.33-63.62 0.29c-6.25 0.01-20.52 1.02-26.05-0.57-4.41-1.27-47.77-35.78-55-41.27-11.27-8.55-22.88-16.52-33.89-25.43-17.3-12.97-34.1-26.68-51.62-39.38-6.33-4.59-13.37-9.94-18.7-15.61l41.93-32.88c5.13-4.01 14.23-11.76 19.22-14.95 3.18 2.42 6.93 4.34 10.02 6.96 18.35 15.47 38.6 28.89 58.28 42.6 1.64 1.15 2.88 1.73 4.8 1.25 1.39-2.13-1.37-11.78-2.21-14.57-4.73-15.74-8.23-31.63-12.04-47.6-2.27-9.5-5.44-18.69-7.46-28.33 4.2-4.48 16.57-13.11 22.13-17.43 19.73-15.31 38.97-30.03 58.38-45.81z"/>
</svg>